<svg width="151" height="50" viewBox="0 0 151 50" fill="none" xmlns="http://www.w3.org/2000/svg">
<path d="M74.801 35.8332H74.3144C74.0002 36.443 73.5812 36.9928 73.0767 37.4575C72.59 37.9078 72.0443 38.2899 71.4547 38.5932C70.8695 38.8917 70.2494 39.1161 69.6088 39.2614C68.9974 39.406 68.3717 39.4812 67.7435 39.4855C66.4535 39.4971 65.1731 39.2631 63.9705 38.796C62.7943 38.3409 61.7284 37.6405 60.8438 36.7413C59.9592 35.8422 59.2761 34.7649 58.8401 33.5812C58.3172 32.1737 58.0624 30.6808 58.089 29.1795V28.5306C58.0656 27.0403 58.3278 25.5592 58.8614 24.1676C59.3267 22.9585 60.0299 21.8551 60.9294 20.9228C61.791 20.0464 62.828 19.3619 63.9725 18.9142C65.1482 18.4521 66.4011 18.2181 67.6643 18.2247C69.0096 18.2164 70.3374 18.5289 71.5377 19.1363C72.7456 19.7494 73.7209 20.7392 74.3163 21.9561H74.8029V10.5145H77.9677V38.9176H74.801V35.8332ZM68.0679 36.4822C68.9734 36.4901 69.8708 36.3106 70.7036 35.9549C71.5077 35.6069 72.2309 35.0959 72.8276 34.4542C73.4598 33.7785 73.9544 32.986 74.2835 32.1211C74.6454 31.155 74.8241 30.13 74.8106 29.0984V28.6117C74.822 27.5935 74.6432 26.5822 74.2835 25.6296C73.959 24.7659 73.4698 23.9735 72.843 23.2965C72.2371 22.6489 71.5059 22.1311 70.6939 21.7746C69.8702 21.4094 68.9786 21.2225 68.0776 21.226C67.1654 21.22 66.2614 21.3993 65.4206 21.7533C64.6067 22.0986 63.874 22.6105 63.2696 23.2559C62.6481 23.9271 62.1657 24.7148 61.8504 25.5736C61.503 26.5222 61.3316 27.5262 61.3445 28.5364V29.1853C61.3274 30.2222 61.4989 31.2536 61.8504 32.2292C62.1629 33.0813 62.6458 33.8607 63.2696 34.5199C63.8681 35.1498 64.5915 35.6478 65.3936 35.9819C66.2431 36.3244 67.1521 36.4944 68.0679 36.4822Z" fill="black"/>
<path d="M85.1699 29.8652C85.251 31.861 85.8708 33.4647 87.0294 34.6763C88.1879 35.8879 89.8041 36.497 91.8779 36.5034C92.7113 36.519 93.5423 36.4103 94.3437 36.1808C94.9905 35.992 95.5991 35.6906 96.1414 35.2905C96.6238 34.932 97.035 34.4866 97.354 33.9771C97.665 33.4767 97.9159 32.9412 98.1012 32.3818L101.092 33.1891C100.56 35.0005 99.4623 36.5941 97.9603 37.7376C96.4387 38.9093 94.3849 39.4951 91.7987 39.4951C90.4485 39.5101 89.1088 39.256 87.8577 38.7477C86.6878 38.2688 85.6342 37.5443 84.7683 36.6231C83.8849 35.6728 83.1984 34.5569 82.7486 33.3398C82.2497 31.9949 82.0029 30.5695 82.0206 29.1351V28.1694C82.0096 26.8261 82.2636 25.4938 82.7679 24.2487C83.2418 23.0738 83.95 22.0079 84.8494 21.116C85.7501 20.2327 86.8138 19.5328 87.9813 19.0552C89.2183 18.5495 90.5436 18.2954 91.8798 18.3077C93.5224 18.3077 94.9435 18.6103 96.1433 19.2155C97.2646 19.7625 98.2671 20.5251 99.0937 21.4597C99.8408 22.3121 100.417 23.3003 100.791 24.3704C101.133 25.3036 101.318 26.2872 101.337 27.281V29.8671L85.1699 29.8652ZM91.8779 21.2956C91.0309 21.2891 90.1895 21.433 89.3928 21.7205C87.912 22.2546 86.6859 23.3259 85.9577 24.7219C85.5909 25.4214 85.3516 26.1807 85.251 26.9642H98.1881C98.1461 26.1474 97.933 25.3486 97.5625 24.6195C97.2138 23.9388 96.7326 23.3346 96.1471 22.8426C95.5615 22.3481 94.8927 21.9616 94.1718 21.7012C93.4372 21.4314 92.6605 21.294 91.8779 21.2956Z" fill="black"/>
<path d="M126.611 39.4855H123.439V25.0406C123.439 24.0942 123.222 23.3165 122.79 22.7074C122.357 22.0984 121.668 21.7939 120.722 21.7939C120.308 21.7826 119.897 21.8667 119.521 22.0395C119.144 22.2123 118.813 22.4692 118.551 22.7905C118.003 23.4523 117.729 24.4727 117.729 25.8517V39.4855H114.556V24.8783C114.587 24.077 114.328 23.2914 113.825 22.6669C113.589 22.3818 113.291 22.1548 112.953 22.0034C112.616 21.8521 112.248 21.7804 111.878 21.7939C110.905 21.7939 110.155 22.146 109.627 22.8504C109.099 23.5547 108.835 24.474 108.835 25.6084V39.4855H105.672V19.3603H108.835V21.5505H109.322C109.673 20.6041 110.188 19.9075 110.866 19.4608C111.58 19.0046 112.413 18.7718 113.259 18.7925C114.232 18.7925 115.037 19.05 115.672 19.565C116.306 20.0759 116.767 20.77 116.991 21.5525H117.478C118.397 19.7138 119.857 18.7944 121.859 18.7944C123.373 18.7944 124.542 19.2747 125.368 20.2352C126.193 21.1958 126.607 22.446 126.611 23.986V39.4855Z" fill="black"/>
<path d="M150.861 29.0984C150.891 30.6205 150.607 32.1324 150.029 33.5406C149.519 34.7613 148.767 35.8658 147.818 36.7873C146.892 37.6706 145.795 38.3542 144.594 38.796C142.114 39.7152 139.387 39.7152 136.907 38.796C135.714 38.3507 134.624 37.6673 133.703 36.7873C132.753 35.8669 132.001 34.7621 131.492 33.5406C130.913 32.1327 130.63 30.6206 130.66 29.0984V28.6117C130.633 27.1023 130.916 25.6034 131.492 24.2081C132.007 22.9797 132.766 21.8685 133.723 20.9421C134.649 20.0541 135.746 19.3641 136.947 18.9142C139.407 17.9949 142.115 17.9949 144.574 18.9142C145.776 19.3641 146.873 20.0541 147.799 20.9421C148.755 21.8691 149.514 22.98 150.029 24.2081C150.605 25.6036 150.888 27.1024 150.861 28.6117V29.0984ZM140.761 36.4821C141.686 36.4927 142.605 36.3207 143.464 35.9761C144.284 35.6412 145.024 35.1363 145.634 34.4947C146.271 33.8217 146.767 33.0286 147.094 32.1616C147.458 31.1821 147.637 30.1434 147.621 29.0984V28.6117C147.633 27.5935 147.454 26.5822 147.094 25.6296C146.767 24.7626 146.271 23.9695 145.634 23.2965C145.013 22.6483 144.269 22.1308 143.445 21.7746C142.598 21.4126 141.687 21.2261 140.767 21.2261C139.846 21.2261 138.935 21.4126 138.088 21.7746C137.264 22.1303 136.52 22.6479 135.899 23.2965C135.262 23.9695 134.766 24.7626 134.439 25.6296C134.078 26.5819 133.899 27.5934 133.912 28.6117V29.0984C133.895 30.1434 134.074 31.1824 134.439 32.1616C134.766 33.0286 135.262 33.8217 135.899 34.4947C136.509 35.1367 137.249 35.6416 138.069 35.9761C138.925 36.3192 139.839 36.4911 140.761 36.4821Z" fill="black"/>
<path d="M25.1303 0C20.187 0 15.3547 1.46622 11.2446 4.21326C7.13437 6.96029 3.93088 10.8648 2.03917 15.4329C0.147456 20.0011 -0.347501 25.0277 0.616884 29.8773C1.58127 34.7268 3.96168 39.1813 7.45711 42.6777C10.9525 46.174 15.406 48.555 20.2543 49.5196C25.1026 50.4843 30.1279 49.9892 34.6949 48.097C39.2619 46.2048 43.1654 43.0005 45.9117 38.8892C48.6581 34.778 50.1239 29.9445 50.1239 25C50.1168 18.3718 47.4812 12.0171 42.7956 7.33023C38.1099 2.64338 31.7568 0.00715735 25.1303 0ZM5.82123 34.01C4.50495 31.1888 3.82281 28.1133 3.82281 25C3.82281 21.8867 4.50495 18.8112 5.82123 15.99L21.4268 25L5.82123 34.01ZM23.2766 46.2241C20.1758 45.9535 17.1719 45.0062 14.4767 43.4488C11.7814 41.8915 9.46031 39.7619 7.67683 37.2103L23.2843 28.1984L23.2766 46.2241ZM23.2766 21.7997L7.68455 12.7897C9.46804 10.238 11.7891 8.10853 14.4844 6.55117C17.1796 4.99381 20.1835 4.04647 23.2843 3.77588L23.2766 21.7997ZM44.4316 15.99C45.7479 18.8112 46.43 21.8867 46.43 25C46.43 28.1133 45.7479 31.1888 44.4316 34.01L28.826 25L44.4316 15.99ZM26.9762 3.77588C30.0771 4.04647 33.0809 4.99381 35.7762 6.55117C38.4714 8.10853 40.7925 10.238 42.576 12.7897L26.9762 21.7997V3.77588ZM26.9762 46.2241V28.1984L42.576 37.2083C40.7927 39.7604 38.4717 41.8902 35.7765 43.4479C33.0812 45.0057 30.0773 45.9533 26.9762 46.2241Z" fill="black"/>
</svg>
